<svg xmlns="http://www.w3.org/2000/svg" xmlns:xlink="http://www.w3.org/1999/xlink" width="1080" zoomAndPan="magnify" viewBox="0 0 810 809.999993" height="1080" preserveAspectRatio="xMidYMid meet" version="1.0"><defs><g/><clipPath id="ef410e6961"><path d="M 140.472656 163.613281 L 243.371094 163.613281 L 243.371094 257.355469 L 140.472656 257.355469 Z M 140.472656 163.613281 " clip-rule="nonzero"/></clipPath><clipPath id="ab9d6caeb7"><path d="M 147.222656 163.613281 L 236.535156 163.613281 C 240.265625 163.613281 243.285156 166.632812 243.285156 170.363281 L 243.285156 250.605469 C 243.285156 254.332031 240.265625 257.355469 236.535156 257.355469 L 147.222656 257.355469 C 143.496094 257.355469 140.472656 254.332031 140.472656 250.605469 L 140.472656 170.363281 C 140.472656 166.632812 143.496094 163.613281 147.222656 163.613281 Z M 147.222656 163.613281 " clip-rule="nonzero"/></clipPath><clipPath id="3ee24e9a4a"><path d="M 140.472656 552.644531 L 243.371094 552.644531 L 243.371094 646.390625 L 140.472656 646.390625 Z M 140.472656 552.644531 " clip-rule="nonzero"/></clipPath><clipPath id="f23827a8ce"><path d="M 147.222656 552.644531 L 236.535156 552.644531 C 240.265625 552.644531 243.285156 555.667969 243.285156 559.394531 L 243.285156 639.640625 C 243.285156 643.367188 240.265625 646.390625 236.535156 646.390625 L 147.222656 646.390625 C 143.496094 646.390625 140.472656 643.367188 140.472656 639.640625 L 140.472656 559.394531 C 140.472656 555.667969 143.496094 552.644531 147.222656 552.644531 Z M 147.222656 552.644531 " clip-rule="nonzero"/></clipPath><clipPath id="6f90e9ee36"><path d="M 566.714844 552.644531 L 669.609375 552.644531 L 669.609375 646.390625 L 566.714844 646.390625 Z M 566.714844 552.644531 " clip-rule="nonzero"/></clipPath><clipPath id="83a90ca591"><path d="M 573.464844 552.644531 L 662.777344 552.644531 C 666.503906 552.644531 669.527344 555.667969 669.527344 559.394531 L 669.527344 639.640625 C 669.527344 643.367188 666.503906 646.390625 662.777344 646.390625 L 573.464844 646.390625 C 569.734375 646.390625 566.714844 643.367188 566.714844 639.640625 L 566.714844 559.394531 C 566.714844 555.667969 569.734375 552.644531 573.464844 552.644531 Z M 573.464844 552.644531 " clip-rule="nonzero"/></clipPath><clipPath id="153d6a15b0"><path d="M 566.714844 163.613281 L 669.609375 163.613281 L 669.609375 257.355469 L 566.714844 257.355469 Z M 566.714844 163.613281 " clip-rule="nonzero"/></clipPath><clipPath id="4eef0b558d"><path d="M 573.464844 163.613281 L 662.777344 163.613281 C 666.503906 163.613281 669.527344 166.632812 669.527344 170.363281 L 669.527344 250.605469 C 669.527344 254.332031 666.503906 257.355469 662.777344 257.355469 L 573.464844 257.355469 C 569.734375 257.355469 566.714844 254.332031 566.714844 250.605469 L 566.714844 170.363281 C 566.714844 166.632812 569.734375 163.613281 573.464844 163.613281 Z M 573.464844 163.613281 " clip-rule="nonzero"/></clipPath><clipPath id="4512b486d2"><path d="M 431 569 L 511 569 L 511 668 L 431 668 Z M 431 569 " clip-rule="nonzero"/></clipPath><clipPath id="efbe883fac"><path d="M 408.515625 656.855469 L 432.792969 568.636719 L 521.015625 592.910156 L 496.738281 681.132812 Z M 408.515625 656.855469 " clip-rule="nonzero"/></clipPath><clipPath id="773165b7ba"><path d="M 408.515625 656.855469 L 432.792969 568.636719 L 521.015625 592.910156 L 496.738281 681.132812 Z M 408.515625 656.855469 " clip-rule="nonzero"/></clipPath><clipPath id="33dd95f238"><path d="M 408.515625 656.855469 L 432.792969 568.636719 L 521.015625 592.910156 L 496.738281 681.132812 Z M 408.515625 656.855469 " clip-rule="nonzero"/></clipPath></defs><g clip-path="url(#ef410e6961)"><g clip-path="url(#ab9d6caeb7)"><path fill="#000000" d="M 140.472656 163.613281 L 243.371094 163.613281 L 243.371094 257.355469 L 140.472656 257.355469 Z M 140.472656 163.613281 " fill-opacity="1" fill-rule="nonzero"/></g></g><g clip-path="url(#3ee24e9a4a)"><g clip-path="url(#f23827a8ce)"><path fill="#000000" d="M 140.472656 552.644531 L 243.371094 552.644531 L 243.371094 646.390625 L 140.472656 646.390625 Z M 140.472656 552.644531 " fill-opacity="1" fill-rule="nonzero"/></g></g><g clip-path="url(#6f90e9ee36)"><g clip-path="url(#83a90ca591)"><path fill="#000000" d="M 566.714844 552.644531 L 669.609375 552.644531 L 669.609375 646.390625 L 566.714844 646.390625 Z M 566.714844 552.644531 " fill-opacity="1" fill-rule="nonzero"/></g></g><g clip-path="url(#153d6a15b0)"><g clip-path="url(#4eef0b558d)"><path fill="#000000" d="M 566.714844 163.613281 L 669.609375 163.613281 L 669.609375 257.355469 L 566.714844 257.355469 Z M 566.714844 163.613281 " fill-opacity="1" fill-rule="nonzero"/></g></g><path stroke-linecap="butt" transform="matrix(0.75, -0.000000000000000093, 0.000000000000000093, 0.75, 174.094125, 199.982588)" fill="none" stroke-linejoin="miter" d="M -0.000500189 14.002384 L 592.035988 14.002384 " stroke="#000000" stroke-width="28" stroke-opacity="1" stroke-miterlimit="4"/><path stroke-linecap="butt" transform="matrix(0.75, -0.000000000000000186, 0.000000000000000186, 0.75, 174.094125, 589.017422)" fill="none" stroke-linejoin="miter" d="M -0.000500189 13.997604 L 592.035988 13.997604 " stroke="#000000" stroke-width="28" stroke-opacity="1" stroke-miterlimit="4"/><path stroke-linecap="butt" transform="matrix(0, -0.75, 0.75, 0, 181.378778, 627.0117)" fill="none" stroke-linejoin="miter" d="M -0.0000243921 14.000172 L 592.036464 14.000172 " stroke="#000000" stroke-width="28" stroke-opacity="1" stroke-miterlimit="4"/><path stroke-linecap="butt" transform="matrix(0, -0.75, 0.75, 0, 607.618749, 627.0117)" fill="none" stroke-linejoin="miter" d="M -0.0000243921 13.997919 L 592.036464 13.997919 " stroke="#000000" stroke-width="28" stroke-opacity="1" stroke-miterlimit="4"/><g clip-path="url(#4512b486d2)"><g clip-path="url(#efbe883fac)"><g clip-path="url(#773165b7ba)"><g clip-path="url(#33dd95f238)"><path fill="#000000" d="M 439 570.914062 L 508.421875 627.976562 C 508.761719 628.257812 509.054688 628.578125 509.300781 628.945312 C 509.546875 629.308594 509.738281 629.703125 509.871094 630.121094 C 510.003906 630.539062 510.074219 630.96875 510.082031 631.410156 C 510.089844 631.851562 510.039062 632.28125 509.921875 632.707031 L 509.8125 633.105469 C 509.644531 633.550781 509.410156 633.960938 509.117188 634.332031 C 508.820312 634.707031 508.472656 635.027344 508.078125 635.292969 C 507.679688 635.558594 507.253906 635.753906 506.792969 635.886719 C 506.335938 636.019531 505.867188 636.078125 505.390625 636.0625 L 470.664062 635 L 453.585938 665.507812 C 453.351562 665.921875 453.0625 666.289062 452.714844 666.613281 C 452.367188 666.933594 451.976562 667.195312 451.546875 667.398438 C 451.121094 667.597656 450.667969 667.730469 450.199219 667.792969 C 449.730469 667.855469 449.261719 667.84375 448.792969 667.757812 C 448.328125 667.675781 447.882812 667.519531 447.464844 667.300781 C 447.046875 667.078125 446.671875 666.796875 446.339844 666.457031 C 446.007812 666.121094 445.734375 665.738281 445.519531 665.316406 C 445.304688 664.890625 445.164062 664.445312 445.085938 663.976562 L 431.574219 575.132812 C 431.507812 574.675781 431.507812 574.21875 431.574219 573.761719 C 431.644531 573.304688 431.78125 572.867188 431.984375 572.453125 C 432.183594 572.035156 432.445312 571.660156 432.761719 571.320312 C 433.078125 570.984375 433.4375 570.699219 433.839844 570.472656 C 434.238281 570.246094 434.667969 570.082031 435.117188 569.980469 C 435.570312 569.882812 436.027344 569.851562 436.488281 569.890625 C 436.949219 569.929688 437.390625 570.039062 437.820312 570.210938 C 438.25 570.386719 438.640625 570.621094 439 570.914062 Z M 439 570.914062 " fill-opacity="1" fill-rule="nonzero"/></g></g></g></g><g fill="#000000" fill-opacity="1"><g transform="translate(241.736797, 489.150432)"><g><path d="M 148.640625 -158.171875 L 148.640625 -55.828125 C 148.640625 -44.140625 146.023438 -33.894531 140.796875 -25.09375 C 135.566406 -16.300781 128.007812 -9.5625 118.125 -4.875 C 108.25 -0.1875 96.570312 2.15625 83.09375 2.15625 C 62.75 2.15625 46.953125 -3.050781 35.703125 -13.46875 C 24.453125 -23.894531 18.828125 -38.15625 18.828125 -56.25 L 18.828125 -158.171875 L 52.25 -158.171875 L 52.25 -61.34375 C 52.25 -49.15625 54.703125 -40.210938 59.609375 -34.515625 C 64.515625 -28.816406 72.628906 -25.96875 83.953125 -25.96875 C 94.910156 -25.96875 102.859375 -28.832031 107.796875 -34.5625 C 112.742188 -40.300781 115.21875 -49.300781 115.21875 -61.5625 L 115.21875 -158.171875 Z M 148.640625 -158.171875 "/></g></g><g transform="translate(409.205003, 489.150432)"><g><path d="M 147.78125 0 L 109.484375 0 L 72.703125 -59.828125 L 35.921875 0 L 0 0 L 52.46875 -81.578125 L 3.359375 -158.171875 L 40.359375 -158.171875 L 74.4375 -101.265625 L 107.859375 -158.171875 L 144 -158.171875 L 94.34375 -79.734375 Z M 147.78125 0 "/></g></g></g></svg>